<svg width="14" height="14" viewBox="0 0 14 14" fill="none" xmlns="http://www.w3.org/2000/svg">
<path d="M7.0001 12.8333C6.27093 12.8333 5.58795 12.6948 4.95114 12.4177C4.31433 12.1406 3.76017 11.7663 3.28864 11.2948C2.81711 10.8232 2.44281 10.2691 2.16572 9.63228C1.88864 8.99547 1.7501 8.31249 1.7501 7.58332C1.7501 6.85415 1.88864 6.17117 2.16572 5.53436C2.44281 4.89756 2.81711 4.34339 3.28864 3.87186C3.76017 3.40033 4.31433 3.02603 4.95114 2.74894C5.58795 2.47186 6.27093 2.33332 7.0001 2.33332C7.72927 2.33332 8.41225 2.47186 9.04906 2.74894C9.68586 3.02603 10.24 3.40033 10.7116 3.87186C11.1831 4.34339 11.5574 4.89756 11.8345 5.53436C12.1116 6.17117 12.2501 6.85415 12.2501 7.58332C12.2501 8.31249 12.1116 8.99547 11.8345 9.63228C11.5574 10.2691 11.1831 10.8232 10.7116 11.2948C10.24 11.7663 9.68586 12.1406 9.04906 12.4177C8.41225 12.6948 7.72927 12.8333 7.0001 12.8333ZM8.63343 10.0333L9.4501 9.21665L7.58343 7.34999V4.66665H6.41677V7.81665L8.63343 10.0333ZM3.26676 1.37082L4.08343 2.18749L1.60426 4.66665L0.787598 3.84999L3.26676 1.37082ZM10.7334 1.37082L13.2126 3.84999L12.3959 4.66665L9.91677 2.18749L10.7334 1.37082ZM7.0001 11.6667C8.1376 11.6667 9.10253 11.2705 9.89489 10.4781C10.6873 9.68575 11.0834 8.72082 11.0834 7.58332C11.0834 6.44582 10.6873 5.48089 9.89489 4.68853C9.10253 3.89617 8.1376 3.49999 7.0001 3.49999C5.8626 3.49999 4.89767 3.89617 4.10531 4.68853C3.31295 5.48089 2.91676 6.44582 2.91676 7.58332C2.91676 8.72082 3.31295 9.68575 4.10531 10.4781C4.89767 11.2705 5.8626 11.6667 7.0001 11.6667Z" fill="#1D1B20"/>
</svg>
